#!OML:ASF F:\VICON\USERDATA\INSTALL\rory3\rory3.ASF
:FULLY-SPECIFIED
:DEGREES
2826
root 0.909634 9.92957 -8.07442 -24.4787 -1.66408 1.13464
lowerback 35.556 0.622963 -2.10226
upperback 14.9133 0.0164819 -0.92063
thorax -1.49104 -0.0707989 0.138045
lowerneck -4.16645 -9.91622 -14.7549
upperneck -16.3869 -11.5214 17.8393
head -2.07339 -5.7487 7.83952
rclavicle 6.26172e-015 7.55382e-015
rhumerus -43.3834 36.6449 -97.7496
rradius 62.4969
rwrist -44.6223
rhand -44.3249 2.99183
rfingers 7.12502
rthumb -17.1339 -26.2727
lclavicle 6.26172e-015 7.55382e-015
lhumerus -53.1144 -38.6912 104.089
lradius 59.8331
lwrist 35.724
lhand -44.741 24.7064
lfingers 7.12502
lthumb -17.5345 53.9356
rfemur -65.9684 -17.253 -2.72739
rtibia 114.661
rfoot -17.9578 9.4352
rtoes -11.4653
lfemur -58.9533 22.4098 6.42927
ltibia 113.619
lfoot -17.618 -19.854
ltoes -13.0813
2827
root 0.910371 9.92618 -8.07741 -24.418 -1.66382 1.01339
lowerback 35.4555 0.611951 -2.00357
upperback 14.9437 0.041373 -0.860276
thorax -1.42543 -0.0569317 0.141802
lowerneck -4.17643 -9.78812 -14.7375
upperneck -16.4866 -11.3348 17.8402
head -2.13102 -5.65598 7.8545
rclavicle -3.47873e-015 -5.96354e-016
rhumerus -43.3265 36.5853 -97.6218
rradius 62.4877
rwrist -44.6131
rhand -44.4689 2.92521
rfingers 7.12502
rthumb -17.2725 -26.3272
lclavicle -3.47873e-015 -5.96354e-016
lhumerus -53.0165 -38.7991 104.147
lradius 59.7614
lwrist 35.697
lhand -44.6963 24.5796
lfingers 7.12502
lthumb -17.4914 53.8127
rfemur -66.0386 -17.2642 -2.58083
rtibia 114.663
rfoot -17.9195 9.35962
rtoes -11.508
lfemur -59.0447 22.4587 6.52635
ltibia 113.602
lfoot -17.6353 -19.9928
ltoes -12.8564
2828
root 0.910491 9.92573 -8.07984 -24.4155 -1.70145 0.894168
lowerback 35.4108 0.622979 -1.90891
upperback 14.9654 0.0899403 -0.800149
thorax -1.38814 -0.0313532 0.139721
lowerneck -4.30876 -9.67089 -14.6287
upperneck -16.4495 -11.1691 17.7197
head -2.14189 -5.56784 7.80173
rclavicle -5.66536e-015 1.98785e-016
rhumerus -43.3077 36.4972 -97.5215
rradius 62.4304
rwrist -44.5191
rhand -44.497 3.18512
rfingers 7.12502
rthumb -17.2995 -26.0649
lclavicle -5.66536e-015 1.98785e-016
lhumerus -53.0067 -38.9546 104.254
lradius 59.6981
lwrist 35.703
lhand -44.7533 24.842
lfingers 7.12502
lthumb -17.5463 54.0702
rfemur -66.0397 -17.1939 -2.42065
rtibia 114.651
rfoot -17.9134 9.26633
rtoes -11.5682
lfemur -59.0354 22.5108 6.68869
ltibia 113.579
lfoot -17.6207 -20.1669
ltoes -12.6945
2829
root 0.910875 9.92456 -8.08221 -24.4309 -1.69118 0.815934
lowerback 35.4064 0.618557 -1.84644
upperback 14.9607 0.10674 -0.764268
thorax -1.3925 -0.0213355 0.139091
lowerneck -4.52252 -9.49895 -14.5464
upperneck -16.2629 -10.9266 17.6251
head -2.10362 -5.43693 7.75456
rclavicle -4.07509e-015 -9.74045e-015
rhumerus -43.3418 36.4582 -97.4981
rradius 62.3357
rwrist -44.3739
rhand -44.4385 3.61354
rfingers 7.12502
rthumb -17.2433 -25.6414
lclavicle -4.07509e-015 -9.74045e-015
lhumerus -53.0214 -39.033 104.321
lradius 59.6496
lwrist 35.6618
lhand -44.7615 25.6112
lfingers 7.12502
lthumb -17.5541 54.8387
rfemur -66.0279 -17.1894 -2.33839
rtibia 114.655
rfoot -17.9256 9.19621
rtoes -11.7228
lfemur -59.0472 22.4707 6.78335
ltibia 113.558
lfoot -17.5818 -20.2491
ltoes -12.6206
2830
root 0.911093 9.92517 -8.08661 -24.434 -1.62084 0.834698
lowerback 35.4414 0.63675 -1.89385
upperback 14.9272 0.115249 -0.746018
thorax -1.44049 -0.0192739 0.180104
lowerneck -4.62304 -9.28265 -14.5473
upperneck -16.1869 -10.6155 17.6723
head -2.10922 -5.27805 7.78112
rclavicle -4.77083e-015 6.55989e-015
rhumerus -43.3918 36.4439 -97.4964
rradius 62.2705
rwrist -44.2939
rhand -44.3895 3.60326
rfingers 7.12502
rthumb -17.1962 -25.6558
lclavicle -4.77083e-015 6.55989e-015
lhumerus -52.9954 -39.1482 104.377
lradius 59.5658
lwrist 35.6472
lhand -44.7459 26.2184
lfingers 7.12502
lthumb -17.5391 55.4472
rfemur -66.0312 -17.244 -2.38696
rtibia 114.653
rfoot -17.92 9.20167
rtoes -11.8258
lfemur -59.1126 22.3667 6.70701
ltibia 113.542
lfoot -17.4672 -20.2241
ltoes -12.4223
2831
root 0.911611 9.9258 -8.09 -24.4126 -1.64772 0.811636
lowerback 35.4765 0.687218 -1.90275
upperback 14.8788 0.176078 -0.703198
thorax -1.50579 0.00929247 0.209953
lowerneck -4.64663 -9.06884 -14.4422
upperneck -16.2553 -10.3188 17.5916
head -2.18401 -5.13033 7.75985
rclavicle -4.57205e-015 -1.37161e-014
rhumerus -43.4232 36.4139 -97.4559
rradius 62.2452
rwrist -44.3048
rhand -44.3384 3.2903
rfingers 7.12502
rthumb -17.1469 -25.9731
lclavicle -4.57205e-015 -1.37161e-014
lhumerus -53.0081 -39.2981 104.464
lradius 59.5073
lwrist 35.6908
lhand -44.7827 26.7286
lfingers 7.12502
lthumb -17.5746 55.9542
rfemur -66.0918 -17.1847 -2.32329
rtibia 114.648
rfoot -17.8737 9.16071
rtoes -11.8513
lfemur -59.1824 22.4157 6.74164
ltibia 113.56
lfoot -17.2656 -20.3412
ltoes -11.9597
2832
root 0.912609 9.92386 -8.09025 -24.3874 -1.67057 0.76601
lowerback 35.4452 0.707496 -1.85982
upperback 14.8623 0.217235 -0.67647
thorax -1.51411 0.0308526 0.20242
lowerneck -4.78614 -8.86494 -14.2049
upperneck -16.247 -10.0447 17.3381
head -2.23499 -4.98904 7.65102
rclavicle -2.38542e-015 -8.74653e-015
rhumerus -43.3858 36.4169 -97.4075
rradius 62.1719
rwrist -44.2608
rhand -44.2911 3.22456
rfingers 7.12502
rthumb -17.1014 -26.0428
lclavicle -2.38542e-015 -8.74653e-015
lhumerus -53.1046 -39.453 104.56
lradius 59.4875
lwrist 35.7281
lhand -44.9498 26.9165
lfingers 7.12502
lthumb -17.7354 56.1277
rfemur -66.1485 -17.1419 -2.25327
rtibia 114.659
rfoot -17.8282 9.10117
rtoes -11.8251
lfemur -59.2616 22.4776 6.80652
ltibia 113.597
lfoot -17.0738 -20.5093
ltoes -11.5568
2833
root 0.913561 9.92273 -8.09158 -24.4042 -1.65213 0.73984
lowerback 35.4501 0.707714 -1.82366
upperback 14.8558 0.22973 -0.671177
thorax -1.52321 0.0389859 0.184979
lowerneck -5.05533 -8.64966 -13.9803
upperneck -16.0944 -9.74956 17.0997
head -2.2227 -4.8316 7.53679
rclavicle 6.26172e-015 1.61016e-014
rhumerus -43.3613 36.4108 -97.3958
rradius 62.0567
rwrist -44.097
rhand -44.2827 3.47831
rfingers 7.12502
rthumb -17.0933 -25.7897
lclavicle 6.26172e-015 1.61016e-014
lhumerus -53.1842 -39.5728 104.601
lradius 59.4488
lwrist 35.6963
lhand -45.0753 26.6298
lfingers 7.12502
lthumb -17.8561 55.8301
rfemur -66.1273 -17.1345 -2.24187
rtibia 114.657
rfoot -17.8145 9.06725
rtoes -11.8015
lfemur -59.3019 22.4752 6.82071
ltibia 113.626
lfoot -16.9788 -20.5477
ltoes -11.536
2834
root 0.914222 9.92242 -8.09333 -24.4363 -1.67004 0.715099
lowerback 35.4624 0.736984 -1.79151
upperback 14.8246 0.27664 -0.660322
thorax -1.562 0.0639788 0.164432
lowerneck -5.23178 -8.39267 -13.758
upperneck -15.9706 -9.40388 16.8932
head -2.23718 -4.6537 7.4412
rclavicle -1.59028e-015 -1.37161e-014
rhumerus -43.4508 36.3067 -97.4299
rradius 61.9717
rwrist -43.7917
rhand -44.3123 3.63443
rfingers 7.12502
rthumb -17.1218 -25.6311
lclavicle -1.59028e-015 -1.37161e-014
lhumerus -53.2597 -39.7385 104.662
lradius 59.3765
lwrist 35.707
lhand -45.0697 26.3312
lfingers 7.12502
lthumb -17.8507 55.532
rfemur -66.1064 -17.095 -2.19908
rtibia 114.655
rfoot -17.8191 8.97885
rtoes -12.2869
lfemur -59.2913 22.5162 6.86221
ltibia 113.649
lfoot -16.9445 -20.5595
ltoes -11.649
2835
root 0.914862 9.92224 -8.09371 -24.4538 -1.67715 0.715568
lowerback 35.4151 0.783311 -1.77241
upperback 14.7964 0.342401 -0.654745
thorax -1.57754 0.0980188 0.139589
lowerneck -5.35198 -8.11126 -13.5234
upperneck -15.9078 -9.02426 16.7204
head -2.28004 -4.46327 7.36055
rclavicle -1.98785e-016 -6.55989e-015
rhumerus -43.5579 36.1058 -97.4471
rradius 61.9318
rwrist -43.403
rhand -44.2857 3.47985
rfingers 7.12502
rthumb -17.0962 -25.7879
lclavicle -1.98785e-016 -6.55989e-015
lhumerus -53.3868 -40.0116 104.799
lradius 59.3085
lwrist 35.8503
lhand -45.0531 26.1977
lfingers 7.12502
lthumb -17.8347 55.3999
rfemur -66.1031 -17.0796 -2.18088
rtibia 114.656
rfoot -17.8126 8.88034
rtoes -12.8397
lfemur -59.2825 22.5503 6.85528
ltibia 113.66
lfoot -16.928 -20.4985
ltoes -11.7625
2836
root 0.915541 9.92392 -8.09538 -24.4977 -1.707 0.668851
lowerback 35.4244 0.810334 -1.71302
upperback 14.7913 0.396712 -0.621363
thorax -1.5873 0.12657 0.125916
lowerneck -5.58241 -7.83461 -13.3535
upperneck -15.8381 -8.63666 16.5658
head -2.29862 -4.26211 7.29094
rclavicle 6.95746e-016 -1.80894e-014
rhumerus -43.5939 35.9894 -97.3913
rradius 61.8887
rwrist -43.1105
rhand -44.1954 3.53586
rfingers 7.12502
rthumb -17.0093 -25.7394
lclavicle 6.95746e-016 -1.80894e-014
lhumerus -53.4052 -40.1911 104.886
lradius 59.2235
lwrist 35.8938
lhand -45.0578 25.9952
lfingers 7.12502
lthumb -17.8393 55.197
rfemur -66.0428 -17.0167 -2.11426
rtibia 114.635
rfoot -17.8021 8.82356
rtoes -12.5322
lfemur -59.244 22.6084 6.91059
ltibia 113.669
lfoot -16.928 -20.4119
ltoes -11.8417
